<?xml version="1.0" encoding="UTF-8" standalone="no" ?>
<!DOCTYPE svg PUBLIC "-//W3C//DTD SVG 1.1//EN" "http://www.w3.org/Graphics/SVG/1.1/DTD/svg11.dtd">
<svg xmlns="http://www.w3.org/2000/svg" xmlns:xlink="http://www.w3.org/1999/xlink" version="1.1" width="1080" height="1080" viewBox="0 0 1080 1080" xml:space="preserve">
<desc>Created with Fabric.js 5.2.4</desc>
<defs>
</defs>
<g transform="matrix(1 0 0 1 540 540)" id="9eafe8ec-5385-47ed-a0c9-130e0f419fe8"  >
<rect style="stroke: none; stroke-width: 1; stroke-dasharray: none; stroke-linecap: butt; stroke-dashoffset: 0; stroke-linejoin: miter; stroke-miterlimit: 4; fill: rgb(255,255,255); fill-rule: nonzero; opacity: 1; visibility: hidden;" vector-effect="non-scaling-stroke"  x="-540" y="-540" rx="0" ry="0" width="1080" height="1080" />
</g>
<g transform="matrix(1 0 0 1 540 540)" id="ab23728e-5574-49a7-aa2e-af75304ccd5a"  >
</g>
<g transform="matrix(45 0 0 45 567.4 540)"  >
<path style="stroke: rgb(59,235,0); stroke-width: 2; stroke-dasharray: none; stroke-linecap: round; stroke-dashoffset: 0; stroke-linejoin: round; stroke-miterlimit: 4; fill: none; fill-rule: nonzero; opacity: 1;"  transform=" translate(-12, -11.63)" d="M 8 16.9997 L 16 16.9997 M 11.0177 2.76375 L 4.23539 8.03888 C 3.78202 8.3915 3.55534 8.56781 3.39203 8.78861 C 3.24737 8.9842 3.1396 9.20454 3.07403 9.43881 C 3 9.70327 3 9.99045 3 10.5648 L 3 17.7997 C 3 18.9198 3 19.4799 3.21799 19.9077 C 3.40973 20.284 3.71569 20.59 4.09202 20.7818 C 4.51984 20.9997 5.07989 20.9997 6.2 20.9997 L 17.8 20.9997 C 18.9201 20.9997 19.4802 20.9997 19.908 20.7818 C 20.2843 20.59 20.5903 20.284 20.782 19.9077 C 21 19.4799 21 18.9198 21 17.7997 L 21 10.5648 C 21 9.99045 21 9.70327 20.926 9.43881 C 20.8604 9.20454 20.7526 8.9842 20.608 8.78861 C 20.4447 8.56781 20.218 8.3915 19.7646 8.03888 L 12.9823 2.76376 C 12.631 2.4905 12.4553 2.35388 12.2613 2.30136 C 12.0902 2.25502 11.9098 2.25502 11.7387 2.30136 C 11.5447 2.35388 11.369 2.4905 11.0177 2.76375 Z" stroke-linecap="round" />
</g>
<g transform="matrix(NaN NaN NaN NaN 0 0)"  >
<g style=""   >
</g>
</g>
<g transform="matrix(NaN NaN NaN NaN 0 0)"  >
<g style=""   >
</g>
</g>
</svg>